<svg width="20" height="20" viewBox="0 0 20 20" fill="none" xmlns="http://www.w3.org/2000/svg">
<path d="M7.50001 18.3307H12.5C16.6667 18.3307 18.3333 16.6641 18.3333 12.4974V7.4974C18.3333 3.33073 16.6667 1.66406 12.5 1.66406H7.50001C3.33334 1.66406 1.66667 3.33073 1.66667 7.4974V12.4974C1.66667 16.6641 3.33334 18.3307 7.50001 18.3307Z" stroke="#98A2B3" stroke-width="1.5" stroke-linecap="round" stroke-linejoin="round"/>
<path d="M15 6.45573V12.0807C15 11.1641 14.25 10.4141 13.3333 10.4141H6.66667C5.75 10.4141 5 11.1641 5 12.0807V6.45573C5 5.53906 5.75 4.78906 6.66667 4.78906H13.3333C14.25 4.78906 15 5.53906 15 6.45573Z" stroke="#98A2B3" stroke-width="1.5" stroke-linecap="round" stroke-linejoin="round"/>
<path d="M15.8333 13.125H15" stroke="#98A2B3" stroke-width="1.5" stroke-linecap="round" stroke-linejoin="round"/>
<path d="M5.00001 13.125H4.16667" stroke="#98A2B3" stroke-width="1.5" stroke-linecap="round" stroke-linejoin="round"/>
<path d="M15 11.6667V9.16667C15 8.25 14.25 7.5 13.3333 7.5H6.66667C5.75 7.5 5 8.25 5 9.16667V11.6667" stroke="#98A2B3" stroke-width="1.5" stroke-linecap="round" stroke-linejoin="round"/>
<path d="M15 12.0807V13.1224H12.0833C12.0833 14.2724 11.15 15.2057 10 15.2057C8.85 15.2057 7.91667 14.2724 7.91667 13.1224H5V12.0807C5 11.1641 5.75 10.4141 6.66667 10.4141H13.3333C14.25 10.4141 15 11.1641 15 12.0807Z" stroke="#98A2B3" stroke-width="1.5" stroke-linecap="round" stroke-linejoin="round"/>
</svg>
