<svg width="18" height="18" viewBox="0 0 18 18" fill="none" xmlns="http://www.w3.org/2000/svg">
<path d="M9 14.25C10.6569 14.25 12 12.9069 12 11.25C12 9.59315 10.6569 8.25 9 8.25C7.34315 8.25 6 9.59315 6 11.25C6 12.9069 7.34315 14.25 9 14.25Z" stroke="#98A2B3" stroke-width="1.35" stroke-miterlimit="10" stroke-linecap="round" stroke-linejoin="round"/>
<path d="M7.82999 11.2506L8.31749 11.7381C8.45999 11.8806 8.69249 11.8881 8.83499 11.7456L10.17 10.5156" stroke="#98A2B3" stroke-width="1.35" stroke-linecap="round" stroke-linejoin="round"/>
<path d="M6.74999 16.5H11.25C14.265 16.5 14.805 15.2925 14.9625 13.8225L15.525 9.3225C15.7275 7.4925 15.2025 6 12 6H5.99999C2.79749 6 2.27249 7.4925 2.47499 9.3225L3.03749 13.8225C3.19499 15.2925 3.73499 16.5 6.74999 16.5Z" stroke="#98A2B3" stroke-width="1.35" stroke-miterlimit="10" stroke-linecap="round" stroke-linejoin="round"/>
<path d="M5.625 5.75409V5.02659C5.625 3.33909 6.9825 1.68159 8.67 1.52409C10.68 1.32909 12.375 2.91159 12.375 4.88409V5.91909" stroke="#98A2B3" stroke-width="1.35" stroke-miterlimit="10" stroke-linecap="round" stroke-linejoin="round"/>
</svg>
