<svg width="18" height="18" viewBox="0 0 18 18" fill="none" xmlns="http://www.w3.org/2000/svg">
<path d="M2.37744 5.57812L8.99993 9.41061L15.5774 5.6006" stroke="#98A2B3" stroke-width="1.35" stroke-linecap="round" stroke-linejoin="round"/>
<path d="M9 16.2048V9.40234" stroke="#98A2B3" stroke-width="1.35" stroke-linecap="round" stroke-linejoin="round"/>
<path d="M7.44746 1.86L3.44247 4.08752C2.53497 4.59002 1.79248 5.85001 1.79248 6.88501V11.1225C1.79248 12.1575 2.53497 13.4175 3.44247 13.92L7.44746 16.1475C8.30246 16.62 9.70496 16.62 10.56 16.1475L14.565 13.92C15.4725 13.4175 16.215 12.1575 16.215 11.1225V6.88501C16.215 5.85001 15.4725 4.59002 14.565 4.08752L10.56 1.86C9.69746 1.38 8.30246 1.38 7.44746 1.86Z" stroke="#98A2B3" stroke-width="1.35" stroke-linecap="round" stroke-linejoin="round"/>
<path d="M12.7501 9.92923V7.18425L5.63257 3.07422" stroke="#98A2B3" stroke-width="1.35" stroke-linecap="round" stroke-linejoin="round"/>
</svg>
