<svg width="20" height="20" viewBox="0 0 20 20" fill="none" xmlns="http://www.w3.org/2000/svg">
<path d="M9.16667 1.66406H7.50001C3.33334 1.66406 1.66667 3.33073 1.66667 7.4974V12.4974C1.66667 16.6641 3.33334 18.3307 7.50001 18.3307H12.5C16.6667 18.3307 18.3333 16.6641 18.3333 12.4974V10.8307" stroke="#98A2B3" stroke-width="1.5" stroke-linecap="round" stroke-linejoin="round"/>
<path d="M13.3667 2.5203L6.80001 9.08696C6.55001 9.33696 6.30001 9.82863 6.25001 10.187L5.89167 12.6953C5.75834 13.6036 6.40001 14.237 7.30834 14.112L9.81667 13.7536C10.1667 13.7036 10.6583 13.4536 10.9167 13.2036L17.4833 6.63696C18.6167 5.50363 19.15 4.18696 17.4833 2.5203C15.8167 0.853629 14.5 1.38696 13.3667 2.5203Z" stroke="#98A2B3" stroke-width="1.5" stroke-miterlimit="10" stroke-linecap="round" stroke-linejoin="round"/>
<path d="M12.425 3.46094C12.9833 5.4526 14.5417 7.01094 16.5417 7.5776" stroke="#98A2B3" stroke-width="1.5" stroke-miterlimit="10" stroke-linecap="round" stroke-linejoin="round"/>
</svg>
