<svg width="14" height="14" viewBox="0 0 14 14" fill="none" xmlns="http://www.w3.org/2000/svg">
<g clip-path="url(#clip0_54973_68207)">
<path d="M7.43752 6.41797C7.43752 6.17634 7.24164 5.98047 7.00002 5.98047C6.7584 5.98047 6.56252 6.17634 6.56252 6.41797V9.91797C6.56252 10.1596 6.7584 10.3555 7.00002 10.3555C7.24164 10.3555 7.43752 10.1596 7.43752 9.91797V6.41797Z" fill="#809FB8"/>
<path fill-rule="evenodd" clip-rule="evenodd" d="M7.00002 0.730469C3.53673 0.730469 0.729187 3.53802 0.729187 7.0013C0.729187 10.4646 3.53673 13.2721 7.00002 13.2721C10.4633 13.2721 13.2709 10.4646 13.2709 7.0013C13.2709 3.53802 10.4633 0.730469 7.00002 0.730469ZM1.60419 7.0013C1.60419 4.02127 4.01998 1.60547 7.00002 1.60547C9.98006 1.60547 12.3959 4.02127 12.3959 7.0013C12.3959 9.98134 9.98006 12.3971 7.00002 12.3971C4.01998 12.3971 1.60419 9.98134 1.60419 7.0013Z" fill="#809FB8"/>
<path d="M7.58335 4.66797C7.58335 4.99013 7.32218 5.2513 7.00002 5.2513C6.67785 5.2513 6.41668 4.99013 6.41668 4.66797C6.41668 4.3458 6.67785 4.08464 7.00002 4.08464C7.32218 4.08464 7.58335 4.3458 7.58335 4.66797Z" fill="#809FB8"/>
</g>
<defs>
<clipPath id="clip0_54973_68207">
<rect width="14" height="14" fill="white"/>
</clipPath>
</defs>
</svg>
