<svg width="18" height="18" viewBox="0 0 18 18" fill="none" xmlns="http://www.w3.org/2000/svg">
<path d="M6.75 1.5H11.25C15 1.5 16.5 3 16.5 6.75V11.25C16.5 15 15 16.5 11.25 16.5H6.75C3 16.5 1.5 15 1.5 11.25V6.75C1.5 3 3 1.5 6.75 1.5Z" stroke="#98A2B3" stroke-width="1.35" stroke-linecap="round" stroke-linejoin="round"/>
<path d="M6.42749 11.4519L11.3325 6.54688" stroke="#98A2B3" stroke-width="1.35" stroke-linecap="round" stroke-linejoin="round"/>
<path d="M6.73501 7.77859C7.24449 7.77859 7.65749 7.36558 7.65749 6.8561C7.65749 6.34662 7.24449 5.93359 6.73501 5.93359C6.22553 5.93359 5.8125 6.34662 5.8125 6.8561C5.8125 7.36558 6.22553 7.77859 6.73501 7.77859Z" stroke="#98A2B3" stroke-width="1.35" stroke-linecap="round" stroke-linejoin="round"/>
<path d="M11.6398 12.0676C12.1493 12.0676 12.5623 11.6546 12.5623 11.1451C12.5623 10.6357 12.1493 10.2227 11.6398 10.2227C11.1303 10.2227 10.7173 10.6357 10.7173 11.1451C10.7173 11.6546 11.1303 12.0676 11.6398 12.0676Z" stroke="#98A2B3" stroke-width="1.35" stroke-linecap="round" stroke-linejoin="round"/>
</svg>
